<?xml version="1.0" encoding="UTF-8" standalone="no"?>
<!-- Created with Inkscape (http://www.inkscape.org/) -->

<svg
   xmlns:dc="http://purl.org/dc/elements/1.1/"
   xmlns:cc="http://creativecommons.org/ns#"
   xmlns:rdf="http://www.w3.org/1999/02/22-rdf-syntax-ns#"
   xmlns:svg="http://www.w3.org/2000/svg"
   xmlns="http://www.w3.org/2000/svg"
   xmlns:sodipodi="http://sodipodi.sourceforge.net/DTD/sodipodi-0.dtd"
   xmlns:inkscape="http://www.inkscape.org/namespaces/inkscape"
   width="14in"
   height="9in"
   viewBox="0 0 355.6 228.60001"
   version="1.1"
   id="svg8"
   inkscape:version="0.92.1 r15371"
   sodipodi:docname="footpad.svg">
  <defs
     id="defs2" />
  <sodipodi:namedview
     id="base"
     pagecolor="#ffffff"
     bordercolor="#666666"
     borderopacity="1.0"
     inkscape:pageopacity="0.0"
     inkscape:pageshadow="2"
     inkscape:zoom="0.98994949"
     inkscape:cx="666.92561"
     inkscape:cy="443.27861"
     inkscape:document-units="in"
     inkscape:current-layer="layer1"
     showgrid="false"
     units="in"
     inkscape:window-width="2560"
     inkscape:window-height="1387"
     inkscape:window-x="-8"
     inkscape:window-y="-8"
     inkscape:window-maximized="1" />
  <metadata
     id="metadata5">
    <rdf:RDF>
      <cc:Work
         rdf:about="">
        <dc:format>image/svg+xml</dc:format>
        <dc:type
           rdf:resource="http://purl.org/dc/dcmitype/StillImage" />
        <dc:title></dc:title>
      </cc:Work>
    </rdf:RDF>
  </metadata>
  <g
     inkscape:label="Layer 1"
     inkscape:groupmode="layer"
     id="layer1"
     transform="translate(0,-68.399984)">
    <g
       id="g4501"
       style="fill:#ff0000;stroke:#ff0000;stroke-width:0.0254;stroke-miterlimit:4;stroke-dasharray:none;stroke-opacity:1"
       transform="translate(-17.10525,21.381563)">
      <path
         inkscape:connector-curvature="0"
         id="path4489"
         d="m 33.904465,261.24712 c 310.409535,0 310.926895,0 310.926895,0 v -0.0982"
         style="fill:#ff0000;stroke:#ff0000;stroke-width:0.0254;stroke-linecap:butt;stroke-linejoin:miter;stroke-miterlimit:4;stroke-dasharray:none;stroke-opacity:1" />
      <path
         inkscape:connector-curvature="0"
         id="path4491"
         d="m 344.83136,51.697115 c 0,209.111615 0,209.550005 0,209.550005"
         style="fill:#ff0000;stroke:#ff0000;stroke-width:0.0254;stroke-linecap:butt;stroke-linejoin:miter;stroke-miterlimit:4;stroke-dasharray:none;stroke-opacity:1" />
      <path
         inkscape:connector-curvature="0"
         id="path4493"
         d="m 33.904465,134.24712 c 0,126.49901 0,127 0,127"
         style="fill:#ff0000;stroke:#ff0000;stroke-width:0.0254;stroke-linecap:butt;stroke-linejoin:miter;stroke-miterlimit:4;stroke-dasharray:none;stroke-opacity:1" />
      <path
         inkscape:connector-curvature="0"
         id="path4495"
         d="M 33.904466,134.24712 C 344.83136,51.697115 344.83136,51.697115 344.83136,51.697115"
         style="fill:#ff0000;stroke:#ff0000;stroke-width:0.0254;stroke-linecap:butt;stroke-linejoin:miter;stroke-miterlimit:4;stroke-dasharray:none;stroke-opacity:1" />
    </g>
    <path
       style="fill:#000000;stroke-width:0.18135937"
       d="m 186.96443,148.25226 c 3.23604,0.21559 5.43047,0.83025 7.57914,2.12296 3.3489,2.01481 5.32618,4.51657 6.22589,7.87739 0.96331,3.59779 0.28508,7.65043 -1.8626,11.13193 -1.92111,3.11421 -3.22054,4.17622 -6.76565,5.52945 -3.86506,1.47536 -4.4029,2.37153 -5.78389,9.6373 -0.62587,3.29293 -1.24135,5.10281 -2.5123,7.38777 -2.26209,4.06688 -5.07954,6.47409 -9.67184,8.26356 -1.37778,0.53687 -1.72614,0.60245 -3.6133,0.68018 -1.14868,0.0473 -2.69623,0.007 -3.43901,-0.0896 -1.97238,-0.2565 -4.46056,-1.10997 -5.96245,-2.04517 -1.17867,-0.73397 -1.47937,-1.04513 -2.91029,-3.01159 -1.99013,-2.73501 -2.41299,-3.21111 -3.44497,-3.87884 -1.16842,-0.756 -1.93006,-0.86724 -5.68113,-0.82977 -1.82305,0.0182 -3.70129,0.009 -4.17384,-0.0202 -2.93457,-0.18196 -6.40438,-1.90743 -8.94434,-4.44787 -0.96867,-0.96884 -2.338,-2.89053 -3.09763,-4.34711 -0.86889,-1.66607 -1.68508,-5.25465 -1.68104,-7.39109 0.008,-4.05851 1.2581,-6.41977 5.17193,-9.76644 2.36802,-2.02486 3.60563,-2.66967 6.83844,-3.56288 2.55123,-0.70492 2.92594,-0.76061 6.40983,-0.95372 3.58337,-0.19859 6.95324,-0.61554 10.08613,-1.24794 0.83274,-0.16805 2.01552,-0.39124 2.62844,-0.4959 2.08982,-0.35681 5.50346,-2.16627 10.34447,-5.48328 3.48233,-2.38606 4.89733,-3.02763 9.21888,-4.17989 3.41743,-0.91155 3.73381,-0.96641 5.04113,-0.8793 z m 20.79227,22.96031 c 2.92374,0.0312 5.2057,1.44989 7.31454,4.54755 l 1.01014,1.48379 1.49336,5.60807 1.49433,5.60782 0.18785,3.32929 c 0.23725,4.20482 0.24318,6.48175 0.022,8.44317 -0.63353,5.61832 -2.98429,10.91501 -5.5333,12.46752 -1.98761,1.21059 -5.76066,-0.55112 -8.81616,-4.11642 -1.64011,-1.91377 -5.26552,-7.87326 -7.00728,-11.51861 -0.33466,-0.70046 -0.71674,-1.49803 -0.84904,-1.77238 -0.13222,-0.27437 -0.55076,-1.47182 -0.92992,-2.66106 -1.42434,-4.46736 -1.43816,-8.54215 -0.04,-11.78485 1.24009,-2.87605 3.44947,-5.74621 5.81843,-7.5586 1.2076,-0.92389 1.56835,-1.1058 3.10454,-1.56561 1.14468,-0.34264 2.07697,-0.51666 2.73045,-0.50968 z m -64.908,24.22229 c 2.04333,0.13216 3.85542,0.57584 4.99497,1.22298 1.18041,0.67034 2.60593,2.20621 3.77095,4.06285 0.88855,1.41605 0.92526,1.51971 2.15395,6.08123 1.1935,4.43102 1.25552,4.74939 1.37121,7.049 0.25264,5.02027 -0.13937,12.16721 -0.75941,13.84484 -0.11245,0.30424 -0.18387,0.62993 -0.15872,0.72376 0.0901,0.3362 -1.57863,3.24023 -2.13275,3.71157 -0.73939,0.62896 -1.7845,0.67932 -4.23447,0.20405 -3.54623,-0.68793 -7.89333,-3.60155 -11.64399,-7.8043 -2.02413,-2.26811 -2.26817,-2.79591 -3.62008,-7.8297 -1.04667,-3.89849 -1.18783,-4.59879 -1.28381,-6.38382 -0.18681,-3.47512 0.20197,-5.30317 1.83901,-8.64692 0.93005,-1.89966 2.51628,-3.91418 3.82594,-4.85892 1.20037,-0.8659 3.92102,-1.50315 5.8772,-1.37662 z m 50.46907,5.81583 c 2.32514,0.1143 4.01957,1.07878 5.99517,3.41255 0.7201,0.85065 1.45804,1.79354 1.63987,2.09531 0.1818,0.30178 0.73125,1.20174 1.22094,1.99993 0.48968,0.79819 1.22395,2.24901 1.63171,3.22405 0.87585,2.09436 2.21761,6.94308 2.34921,8.4892 0.12699,1.49227 -0.0224,5.05796 -0.2785,6.64513 -1.08432,6.72126 -5.58214,12.86601 -9.41708,12.86523 -2.14366,-4.3e-4 -3.67054,-0.71445 -4.96825,-2.32333 -1.23413,-1.53004 -5.78412,-9.34167 -7.06438,-12.12847 -0.35262,-0.76755 -0.89342,-2.59322 -1.57164,-5.30547 -0.9977,-3.99007 -1.0346,-4.21744 -1.04912,-6.47813 -0.017,-2.64523 0.39654,-5.22092 1.04038,-6.47932 0.72476,-1.41655 2.89492,-3.61054 4.43883,-4.48758 1.28016,-0.7272 4.70202,-1.59452 6.03287,-1.52912 z m -24.34402,8.64899 c 1.36763,0.13995 2.52804,0.55264 3.87766,1.37909 1.48184,0.90738 2.58827,1.96508 3.11151,2.97444 3.85803,7.44242 5.82682,11.80608 7.17551,15.90385 0.31847,0.96755 0.65745,1.91622 0.75334,2.10815 0.0959,0.1919 0.62059,1.99461 1.16605,4.00597 0.75011,2.76465 0.99197,3.92113 0.993,4.73943 0.003,2.27346 -0.68462,3.99732 -1.90712,4.78268 -0.81128,0.52119 -3.25817,0.99955 -4.91907,0.96169 -4.47541,-0.10204 -9.7946,-1.70169 -12.42066,-3.73528 -1.24148,-0.9614 -4.08845,-4.0833 -5.31995,-5.83371 -1.6775,-2.38431 -3.48803,-8.33415 -3.61849,-11.89114 -0.0892,-2.43179 0.17179,-5.1528 0.62298,-6.49543 0.48418,-1.44084 2.55185,-4.8207 3.63334,-5.93913 1.99753,-2.06577 4.6015,-3.1909 6.85192,-2.96062 z"
       id="path4514"
       inkscape:connector-curvature="0" />
  </g>
</svg>
